PathFileType	4	(X/Y/Z)	C:\Documents and Settings\rtobon\Desktop\NewMocap\New\NoT\ActorC_TPose.trc
DataRate	CameraRate	NumFrames	NumMarkers	Units	OrigDataRate	OrigDataStartFrame	OrigNumFrames
120.00	120.00	       6	49	mm	120.00	139	       277
Frame#	Time	Root			LtFtHip			LtBkHip			RtFtHip			RtBkHip			Spine1			Spine2			Spine3			SpineOffsetLow			SpineOffsetHigh			LtCtChest			RtCtChest			LtChest			RtChest			LtShoulder			LtBicep			LtElbow			LtForeArm			LtWrist			LtPinky			LtThumb			LtMiddFing			RtShoulder			RtBicep			RtElbow			RtForeArm			RtWrist			RtPinky			RtThumb			RtMiddFing			LtThigh			LtKnee			LtCalf			LtAnkle			LtHeel			LtBall			LtToe			RtThigh			RtKnee			RtCalf			RtAnkle			RtHeel			RtBall			RtToe			TopHead			LfFtHead			LtBkHead			RtFtHead			RtBkHead			
		X1	Y1	Z1	X2	Y2	Z2	X3	Y3	Z3	X4	Y4	Z4	X5	Y5	Z5	X6	Y6	Z6	X7	Y7	Z7	X8	Y8	Z8	X9	Y9	Z9	X10	Y10	Z10	X11	Y11	Z11	X12	Y12	Z12	X13	Y13	Z13	X14	Y14	Z14	X15	Y15	Z15	X16	Y16	Z16	X17	Y17	Z17	X18	Y18	Z18	X19	Y19	Z19	X20	Y20	Z20	X21	Y21	Z21	X22	Y22	Z22	X23	Y23	Z23	X24	Y24	Z24	X25	Y25	Z25	X26	Y26	Z26	X27	Y27	Z27	X28	Y28	Z28	X29	Y29	Z29	X30	Y30	Z30	X31	Y31	Z31	X32	Y32	Z32	X33	Y33	Z33	X34	Y34	Z34	X35	Y35	Z35	X36	Y36	Z36	X37	Y37	Z37	X38	Y38	Z38	X39	Y39	Z39	X40	Y40	Z40	X41	Y41	Z41	X42	Y42	Z42	X43	Y43	Z43	X44	Y44	Z44	X45	Y45	Z45	X46	Y46	Z46	X47	Y47	Z47	X48	Y48	Z48	X49	Y49	Z49	

139	1.150	31.43543	977.63538	-153.87199	162.33237	936.67444	54.60697	163.67818	971.14191	-119.67302	-110.78474	931.50494	60.32664	-107.35133	950.61823	-130.52003	31.25813	1137.10986	-149.83731	33.25917	1279.38428	-153.56241	41.45411	1406.66199	-121.03862	-53.21558	1044.06152	-138.74733	131.18631	1353.22461	-138.75676	54.84582	1214.68872	110.16033	-4.19686	1285.34583	95.52443	128.07161	1325.12891	76.79382	-72.59244	1330.98254	64.10601	165.76863	1426.29138	-22.41371	360.61789	1381.53687	-16.06004	478.09937	1362.68213	-85.98821	588.05267	1369.65186	1.51936	708.42090	1376.35107	-18.73127	770.58362	1341.54419	-63.09815	736.56372	1354.29321	48.68340	762.39160	1382.28552	-6.87965	-112.04729	1426.78931	-44.83795	-297.56473	1378.60864	-0.20810	-407.31662	1372.51440	-109.75426	-532.43231	1385.90930	-0.95891	-656.10059	1412.23328	-42.99270	-718.54828	1372.99597	-86.57686	-678.86890	1374.43628	29.65218	-718.06738	1408.48743	-28.95170	170.42490	681.61688	59.02227	192.44073	488.07791	-17.79943	203.06624	375.28226	-141.30489	202.83673	167.13190	-84.41611	151.78391	46.04374	-173.01703	212.32112	64.36122	4.69744	154.80362	57.79331	99.27072	-129.08812	671.86298	49.61093	-160.74388	512.11340	-26.40679	-189.71724	376.57721	-130.90060	-182.63301	165.65707	-98.85563	-122.94687	47.49068	-170.79173	-205.95834	65.32327	5.52892	-150.49771	65.00893	100.73482	31.66199	1692.08374	-40.75451	90.81052	1626.58337	55.16627	122.31833	1546.91052	-72.85535	-47.35056	1625.47229	34.50974	-35.37977	1545.35986	-102.95836	
140	1.158	31.54169	977.60260	-153.96776	162.35728	936.80792	54.62424	163.60434	971.11707	-119.65594	-110.83373	931.53821	60.26398	-107.35133	950.61823	-130.52003	31.25813	1137.10986	-149.83731	33.08261	1279.37085	-153.54082	41.45690	1406.71582	-121.06780	-53.43890	1044.07288	-138.88037	131.22026	1353.29785	-138.97827	54.95740	1214.68164	110.03055	-4.26566	1285.47949	95.49231	128.07501	1325.04236	76.65064	-72.79704	1330.95166	64.15205	165.75247	1426.37817	-22.41416	360.56036	1381.57520	-15.94423	478.07010	1362.72876	-85.96510	587.98804	1369.79492	1.77814	708.25305	1376.31897	-18.85423	770.63586	1341.49548	-63.07792	736.47583	1354.35864	48.90083	762.38763	1382.27051	-6.72306	-112.02872	1426.77527	-44.96466	-297.47375	1378.60327	-0.10550	-407.16898	1372.41528	-109.46686	-532.40259	1385.86890	-0.89442	-656.09399	1412.06714	-42.77649	-718.57056	1372.83630	-86.38430	-678.80756	1374.35461	29.68759	-717.84564	1408.23413	-28.65281	170.45421	681.54401	58.95298	192.44073	488.07791	-17.79943	203.21162	375.25162	-141.34631	202.81317	167.19850	-84.25983	151.78391	46.04374	-173.01703	211.92747	64.17480	4.24288	154.66008	57.70984	99.27622	-129.08812	671.86298	49.61093	-160.66611	512.08923	-26.36763	-189.63777	376.48309	-130.89984	-182.63301	165.65707	-98.85563	-123.00806	47.59255	-170.77957	-206.02429	65.35537	5.53020	-150.49771	65.00893	100.73482	31.61904	1692.04504	-40.56441	90.82430	1626.60767	55.10876	122.24481	1547.00439	-72.98386	-47.29998	1625.42102	34.50534	-35.44967	1545.29712	-103.00151	
141	1.167	31.43543	977.63538	-153.87199	162.35728	936.80792	54.62424	163.62895	971.16162	-119.66933	-110.83373	931.53821	60.26398	-107.35133	950.61823	-130.52003	31.07484	1137.12390	-149.90465	33.13857	1279.44714	-153.53458	41.47916	1406.81775	-120.98226	-53.48932	1044.13757	-138.87862	131.22026	1353.29785	-138.97827	55.00301	1214.55725	109.97594	-4.29994	1285.40540	95.52110	127.97952	1325.12195	76.84412	-72.79704	1330.95166	64.15205	165.77687	1426.30322	-22.50363	360.56110	1381.53979	-16.07115	477.98849	1362.67273	-85.74496	587.98810	1369.73486	1.89126	708.31018	1376.44714	-18.55908	770.75500	1341.62610	-62.96660	736.55621	1354.28662	49.06538	762.29315	1382.43237	-6.67254	-111.97710	1426.75500	-44.94330	-297.62518	1378.59570	-0.10623	-407.41592	1372.57983	-109.59287	-532.37775	1385.83496	-0.80959	-656.11902	1412.09814	-42.60260	-718.54138	1372.75549	-86.32687	-678.96045	1374.26208	29.90830	-717.96771	1408.09155	-28.56607	170.44713	681.47064	58.74239	192.44073	488.07791	-17.79943	203.21162	375.25162	-141.34631	202.91795	167.14354	-84.33648	151.90514	45.95016	-172.97256	211.95695	64.28984	4.35701	154.59723	57.60963	99.31491	-129.13191	671.83026	49.47495	-160.67165	512.17157	-26.44657	-189.75966	376.67667	-131.03241	-182.51961	165.62535	-98.83527	-123.00806	47.59255	-170.77957	-206.02429	65.35537	5.53020	-150.49771	65.00893	100.73482	31.63909	1692.07190	-40.54559	89.83394	1626.51416	55.02729	122.29758	1547.05920	-72.88084	-47.37532	1625.36926	34.62928	-35.34555	1545.42078	-102.97260	
142	1.175	31.36043	977.75818	-153.89204	162.33499	936.71948	54.53191	163.59937	971.15094	-119.76357	-110.81070	931.42529	60.13443	-107.35133	950.61823	-130.52003	30.96592	1137.28284	-150.02209	33.16664	1279.53430	-153.59961	41.47455	1406.68372	-121.15212	-53.48932	1044.13757	-138.87862	131.22026	1353.29785	-138.97827	54.92073	1214.67432	110.14227	-4.29994	1285.40540	95.52110	127.88396	1325.10303	76.79340	-72.67476	1331.02747	64.05099	165.73186	1426.33948	-22.46459	360.52243	1381.51196	-15.97839	478.04190	1362.73389	-85.80716	588.00513	1369.76465	1.89697	708.16467	1376.44043	-18.40793	770.65320	1341.86621	-62.79952	736.54102	1354.27881	49.11631	762.29175	1382.36182	-6.48073	-112.12669	1426.75757	-44.94134	-297.62518	1378.59570	-0.10623	-407.48489	1372.67224	-109.63025	-532.40717	1385.76318	-0.68581	-656.18555	1411.97070	-42.64163	-718.53467	1372.69824	-86.24627	-678.96832	1374.19629	29.94442	-717.95837	1407.92346	-28.38848	170.43420	681.51660	58.78354	192.44073	488.07791	-17.79943	203.11797	375.22375	-141.35619	202.83673	167.13190	-84.41611	151.89136	46.19225	-173.21591	211.95695	64.28984	4.35701	154.75397	57.82381	99.27557	-129.11044	671.89136	49.48694	-160.74388	512.11340	-26.40679	-189.75966	376.67667	-131.03241	-182.51961	165.62535	-98.83527	-123.00806	47.59255	-170.77957	-206.01031	65.30453	5.57289	-150.55237	65.09908	100.59951	31.51708	1692.20227	-40.55909	90.03493	1626.62793	55.34938	122.26207	1547.12280	-72.93205	-47.36309	1625.34888	34.60107	-35.41545	1545.35803	-103.01575	
143	1.183	31.16982	978.01971	-154.24376	162.28268	936.73242	54.48234	163.60434	971.11707	-119.65594	-110.83373	931.53821	60.26398	-107.24572	950.79449	-130.66801	31.07484	1137.12390	-149.90465	33.12156	1279.48633	-153.79572	41.40399	1406.73242	-121.12648	-53.48932	1044.13757	-138.87862	131.22026	1353.29785	-138.97827	54.92678	1214.69910	109.94603	-4.35052	1285.52100	95.60505	127.89619	1325.07336	76.81294	-73.05518	1331.14514	64.29427	165.75076	1426.34692	-22.45877	360.53772	1381.54553	-16.03745	478.06113	1362.72961	-85.83420	587.92480	1369.61597	1.91909	708.18976	1376.40295	-18.40536	770.67780	1341.77051	-62.82163	736.50861	1354.20776	49.13437	762.14795	1382.28589	-6.32507	-112.09293	1426.79651	-44.92303	-297.55328	1378.64258	0.09476	-407.61111	1372.55579	-109.50388	-532.49084	1385.76428	-0.69756	-656.18604	1411.95972	-42.34462	-718.60724	1372.58960	-86.06283	-679.02838	1374.14185	30.08578	-717.90674	1407.78052	-28.10935	170.34402	681.47656	58.71371	192.48235	488.13412	-17.94984	203.11797	375.22375	-141.35619	202.83673	167.13190	-84.41611	152.01280	45.91880	-173.02730	212.22386	64.42569	4.78166	154.80362	57.79331	99.27072	-129.05159	672.07684	49.36763	-160.74388	512.11340	-26.40679	-189.75966	376.67667	-131.03241	-182.39655	165.73294	-98.86938	-123.00806	47.59255	-170.77957	-205.95834	65.32327	5.52892	-150.52641	65.07617	100.68255	31.53282	1692.22327	-40.44564	89.85392	1626.36169	55.27581	122.26207	1547.12280	-72.93205	-47.46801	1625.36487	34.52309	-35.42733	1545.39087	-102.93476	
144	1.192	31.24864	977.89996	-154.21829	162.22383	936.67468	54.27336	163.54338	971.13098	-119.90083	-110.71706	931.35516	60.02477	-107.35133	950.61823	-130.52003	31.07484	1137.12390	-149.90465	32.97955	1279.58545	-153.78378	41.38546	1406.79785	-121.00132	-53.57448	1044.06104	-138.90541	131.12996	1353.29492	-139.02791	54.92678	1214.69910	109.94603	-4.26566	1285.47949	95.49231	127.77831	1324.98572	76.55585	-73.12695	1331.10107	64.12028	165.73491	1426.41333	-22.46662	360.47263	1381.54150	-16.03531	477.90005	1362.72241	-85.77831	587.85510	1369.63708	1.98619	708.19708	1376.37427	-18.28769	770.78571	1341.73145	-62.65443	736.40198	1354.18262	49.20696	762.22266	1382.30457	-6.31339	-112.11295	1426.76050	-44.90183	-297.62756	1378.63464	-0.04200	-407.59235	1372.39355	-109.43542	-532.40717	1385.76318	-0.68581	-656.25140	1411.84021	-42.44537	-718.70123	1372.58032	-85.90108	-678.89594	1373.82263	30.49160	-717.97955	1407.71277	-28.04440	170.38663	681.50165	58.70000	192.48235	488.13412	-17.94984	203.11797	375.22375	-141.35619	202.85805	167.21178	-84.47745	151.89554	46.19519	-173.09726	211.83417	64.14027	4.24931	154.73885	57.75314	99.41468	-129.02782	672.00385	49.42218	-160.67165	512.17157	-26.44657	-189.72313	376.49295	-131.13831	-182.47763	165.65222	-98.80783	-123.00806	47.59255	-170.77957	-206.02429	65.35537	5.53020	-150.45082	65.06937	100.61990	31.58776	1692.22424	-40.39496	89.69874	1626.44177	55.12661	122.26207	1547.12280	-72.93205	-47.55252	1625.37708	34.56862	-35.77534	1545.72412	-103.58821	
